REM DIRINDEX 1\2,1\3,1\4,1\5\6,1\5\7,1\8
REM DIRNAME cjc115,folder01,folder02,folder03,folder04,folder05,folder06,folder07
TITLE ""
FILE "041 【041】Unit3 (0457 selective_0468 fictitious).mp3" MP3
  TRACK 01 AUDIO
    TITLE "0:"
    INDEX 01 00:00:00
  TRACK 02 AUDIO
    TITLE "2:cjc115_1600"
    INDEX 01 00:00:07
  TRACK 03 AUDIO
    TITLE "0:"
    INDEX 01 00:01:24
  TRACK 04 AUDIO
    TITLE "3:cjc115_1601"
    INDEX 01 00:01:34
  TRACK 05 AUDIO
    TITLE "0:"
    INDEX 01 00:03:29
  TRACK 06 AUDIO
    TITLE "4:cjc115_1602"
    INDEX 01 00:03:43
  TRACK 07 AUDIO
    TITLE "0:"
    INDEX 01 00:07:58
  TRACK 08 AUDIO
    TITLE "2:cjc115_1603"
    INDEX 01 00:08:68
  TRACK 09 AUDIO
    TITLE "0:"
    INDEX 01 00:09:61
  TRACK 10 AUDIO
    TITLE "3:cjc115_1604"
    INDEX 01 00:10:02
  TRACK 11 AUDIO
    TITLE "0:"
    INDEX 01 00:11:52
  TRACK 12 AUDIO
    TITLE "4:cjc115_1605"
    INDEX 01 00:11:70
  TRACK 13 AUDIO
    TITLE "0:"
    INDEX 01 00:14:54
  TRACK 14 AUDIO
    TITLE "2:cjc115_1606"
    INDEX 01 00:15:66
  TRACK 15 AUDIO
    TITLE "0:"
    INDEX 01 00:16:71
  TRACK 16 AUDIO
    TITLE "3:cjc115_1607"
    INDEX 01 00:17:08
  TRACK 17 AUDIO
    TITLE "0:"
    INDEX 01 00:19:16
  TRACK 18 AUDIO
    TITLE "4:cjc115_1608"
    INDEX 01 00:19:26
  TRACK 19 AUDIO
    TITLE "0:"
    INDEX 01 00:23:04
  TRACK 20 AUDIO
    TITLE "2:cjc115_1609"
    INDEX 01 00:24:14
  TRACK 21 AUDIO
    TITLE "0:"
    INDEX 01 00:25:13
  TRACK 22 AUDIO
    TITLE "3:cjc115_1610"
    INDEX 01 00:25:25
  TRACK 23 AUDIO
    TITLE "0:"
    INDEX 01 00:27:53
  TRACK 24 AUDIO
    TITLE "4:cjc115_1611"
    INDEX 01 00:27:69
  TRACK 25 AUDIO
    TITLE "0:"
    INDEX 01 00:31:49
  TRACK 26 AUDIO
    TITLE "2:cjc115_1612"
    INDEX 01 00:32:62
  TRACK 27 AUDIO
    TITLE "0:"
    INDEX 01 00:33:64
  TRACK 28 AUDIO
    TITLE "3:cjc115_1613"
    INDEX 01 00:34:06
  TRACK 29 AUDIO
    TITLE "0:"
    INDEX 01 00:36:11
  TRACK 30 AUDIO
    TITLE "4:cjc115_1614"
    INDEX 01 00:36:25
  TRACK 31 AUDIO
    TITLE "0:"
    INDEX 01 00:40:07
  TRACK 32 AUDIO
    TITLE "2:cjc115_1615"
    INDEX 01 00:41:22
  TRACK 33 AUDIO
    TITLE "0:"
    INDEX 01 00:42:37
  TRACK 34 AUDIO
    TITLE "3:cjc115_1616"
    INDEX 01 00:42:53
  TRACK 35 AUDIO
    TITLE "0:"
    INDEX 01 00:45:04
  TRACK 36 AUDIO
    TITLE "4:cjc115_1617"
    INDEX 01 00:45:16
  TRACK 37 AUDIO
    TITLE "0:"
    INDEX 01 00:48:26
  TRACK 38 AUDIO
    TITLE "2:cjc115_1618"
    INDEX 01 00:49:41
  TRACK 39 AUDIO
    TITLE "0:"
    INDEX 01 00:50:58
  TRACK 40 AUDIO
    TITLE "3:cjc115_1619"
    INDEX 01 00:50:74
  TRACK 41 AUDIO
    TITLE "0:"
    INDEX 01 00:53:47
  TRACK 42 AUDIO
    TITLE "4:cjc115_1620"
    INDEX 01 00:53:62
  TRACK 43 AUDIO
    TITLE "0:"
    INDEX 01 00:58:34
  TRACK 44 AUDIO
    TITLE "2:cjc115_1621"
    INDEX 01 00:59:55
  TRACK 45 AUDIO
    TITLE "0:"
    INDEX 01 01:01:05
  TRACK 46 AUDIO
    TITLE "3:cjc115_1622"
    INDEX 01 01:01:17
  TRACK 47 AUDIO
    TITLE "0:"
    INDEX 01 01:02:46
  TRACK 48 AUDIO
    TITLE "4:cjc115_1623"
    INDEX 01 01:02:57
  TRACK 49 AUDIO
    TITLE "0:"
    INDEX 01 01:05:44
  TRACK 50 AUDIO
    TITLE "2:cjc115_1624"
    INDEX 01 01:06:53
  TRACK 51 AUDIO
    TITLE "0:"
    INDEX 01 01:07:64
  TRACK 52 AUDIO
    TITLE "3:cjc115_1625"
    INDEX 01 01:08:03
  TRACK 53 AUDIO
    TITLE "0:"
    INDEX 01 01:10:47
  TRACK 54 AUDIO
    TITLE "4:cjc115_1626"
    INDEX 01 01:10:63
  TRACK 55 AUDIO
    TITLE "0:"
    INDEX 01 01:15:35
  TRACK 56 AUDIO
    TITLE "2:cjc115_1627"
    INDEX 01 01:16:46
  TRACK 57 AUDIO
    TITLE "0:"
    INDEX 01 01:17:47
  TRACK 58 AUDIO
    TITLE "3:cjc115_1628"
    INDEX 01 01:17:61
  TRACK 59 AUDIO
    TITLE "0:"
    INDEX 01 01:18:74
  TRACK 60 AUDIO
    TITLE "4:cjc115_1629"
    INDEX 01 01:19:15
  TRACK 61 AUDIO
    TITLE "0:"
    INDEX 01 01:23:20
  TRACK 62 AUDIO
    TITLE "2:cjc115_1630"
    INDEX 01 01:24:32
  TRACK 63 AUDIO
    TITLE "0:"
    INDEX 01 01:25:53
  TRACK 64 AUDIO
    TITLE "3:cjc115_1631"
    INDEX 01 01:25:64
  TRACK 65 AUDIO
    TITLE "0:"
    INDEX 01 01:26:68
  TRACK 66 AUDIO
    TITLE "4:cjc115_1632"
    INDEX 01 01:27:08
  TRACK 67 AUDIO
    TITLE "0:"
    INDEX 01 01:31:43
  TRACK 68 AUDIO
    TITLE "2:cjc115_1633"
    INDEX 01 01:32:59
  TRACK 69 AUDIO
    TITLE "0:"
    INDEX 01 01:34:05
  TRACK 70 AUDIO
    TITLE "3:cjc115_1634"
    INDEX 01 01:34:18
  TRACK 71 AUDIO
    TITLE "0:"
    INDEX 01 01:36:25
  TRACK 72 AUDIO
    TITLE "4:cjc115_1635"
    INDEX 01 01:36:39
  TRACK 73 AUDIO
    TITLE "0:"
    INDEX 01 01:40:58
